<svg width="280" height="200" viewBox="0 0 256 186" fill="none" xmlns="http://www.w3.org/2000/svg">
<g filter="url(#filter0_d_104_58)">
<path d="M34 48.3274C34 35.0965 46.6168 25.5119 59.3631 29.0598L82.5 35.5L154 57.5L198 67L219.56 69.4342C224.937 70.0412 229 74.5892 229 80V80V139C229 150.046 220.046 159 209 159H54C42.9543 159 34 150.046 34 139V48.3274Z" fill="#0079DF"/>
<path d="M34 48.3274C34 35.0965 46.6168 25.5119 59.3631 29.0598L82.5 35.5L154 57.5L198 67L219.56 69.4342C224.937 70.0412 229 74.5892 229 80V139C229 150.046 220.046 159 209 159H54C42.9543 159 34 150.046 34 139V48.3274Z" fill="#0079DF"/>
</g>
<rect x="152" y="27" width="63" height="59" rx="10" fill="#0079DF" fill-opacity="0.29"/>
<rect x="152.5" y="27.5" width="62" height="58" rx="9.5" stroke="#0079DF" stroke-opacity="0.29"/>
<rect x="164" y="36" width="40" height="40" fill="url(#paint0_linear_104_58)" stroke="url(#paint1_linear_104_58)" stroke-width="2"/>
<line x1="183.5" y1="37" x2="183.5" y2="75" stroke="url(#paint2_linear_104_58)"/>
<line x1="165" y1="55.5" x2="203" y2="55.5" stroke="url(#paint3_linear_104_58)"/>
<path d="M177.988 45.9629V46.0742C177.98 46.4023 177.945 46.7422 177.883 47.0938C177.824 47.4453 177.74 47.7969 177.631 48.1484C177.521 48.5 177.391 48.8477 177.238 49.1914C177.086 49.5352 176.914 49.8633 176.723 50.1758C176.535 50.4922 176.332 50.7871 176.113 51.0605C175.895 51.3379 175.664 51.582 175.422 51.793L174.549 51.2891C174.686 51.0586 174.809 50.8066 174.918 50.5332C175.031 50.2637 175.133 49.9805 175.223 49.6836C175.312 49.3867 175.389 49.082 175.451 48.7695C175.518 48.457 175.572 48.1465 175.615 47.8379C175.658 47.5293 175.689 47.2266 175.709 46.9297C175.732 46.6289 175.744 46.3438 175.744 46.0742C175.744 45.8633 175.742 45.625 175.738 45.3594C175.738 45.0898 175.723 44.8164 175.691 44.5391C175.664 44.2617 175.617 43.9922 175.551 43.7305C175.484 43.4648 175.385 43.2285 175.252 43.0215C175.123 42.8145 174.955 42.6484 174.748 42.5234C174.545 42.3984 174.291 42.3359 173.986 42.3359C173.717 42.3359 173.484 42.3828 173.289 42.4766C173.098 42.5664 172.934 42.6895 172.797 42.8457C172.664 42.998 172.557 43.1758 172.475 43.3789C172.396 43.582 172.334 43.7969 172.287 44.0234C172.244 44.2461 172.215 44.4727 172.199 44.7031C172.188 44.9297 172.182 45.1445 172.182 45.3477V46.9824H174.707V47.9492H172.182V50H169.855V45.7109C169.855 45.0977 169.953 44.5273 170.148 44C170.344 43.4727 170.619 43.0156 170.975 42.6289C171.334 42.2383 171.764 41.9336 172.264 41.7148C172.768 41.4922 173.328 41.3809 173.945 41.3809C174.363 41.3809 174.754 41.4414 175.117 41.5625C175.484 41.6797 175.818 41.8438 176.119 42.0547C176.42 42.2617 176.688 42.5098 176.922 42.7988C177.16 43.084 177.357 43.3965 177.514 43.7363C177.674 44.0762 177.795 44.4355 177.877 44.8145C177.959 45.1934 177.996 45.5762 177.988 45.9629Z" fill="url(#paint4_linear_104_58)"/>
<path d="M177.619 63.6543L176.617 64.0762C176.539 63.8223 176.434 63.5898 176.301 63.3789C176.172 63.168 176.016 62.9883 175.832 62.8398C175.652 62.6875 175.447 62.5703 175.217 62.4883C174.986 62.4023 174.734 62.3594 174.461 62.3594C174.168 62.3594 173.898 62.4082 173.652 62.5059C173.41 62.5996 173.191 62.7305 172.996 62.8984C172.805 63.0664 172.637 63.2617 172.492 63.4844C172.348 63.707 172.227 63.9453 172.129 64.1992C172.031 64.4492 171.959 64.709 171.912 64.9785C171.865 65.248 171.842 65.5117 171.842 65.7695C171.842 66.1797 171.889 66.5879 171.982 66.9941C172.08 67.4004 172.232 67.7656 172.439 68.0898C172.65 68.4141 172.922 68.6777 173.254 68.8809C173.586 69.0801 173.988 69.1797 174.461 69.1797C174.711 69.1797 174.947 69.1387 175.17 69.0566C175.393 68.9707 175.594 68.8555 175.773 68.7109C175.957 68.5625 176.117 68.3887 176.254 68.1895C176.391 67.9902 176.5 67.7754 176.582 67.5449L177.596 67.9492C177.447 68.3203 177.244 68.6465 176.986 68.9277C176.729 69.2051 176.434 69.4355 176.102 69.6191C175.773 69.8027 175.42 69.9395 175.041 70.0293C174.666 70.123 174.287 70.1699 173.904 70.1699C173.49 70.1699 173.092 70.1191 172.709 70.0176C172.33 69.916 171.977 69.7715 171.648 69.584C171.32 69.3965 171.021 69.1699 170.752 68.9043C170.486 68.6387 170.258 68.3438 170.066 68.0195C169.879 67.6953 169.732 67.3438 169.627 66.9648C169.525 66.582 169.475 66.1836 169.475 65.7695C169.475 65.3555 169.525 64.959 169.627 64.5801C169.732 64.1973 169.879 63.8438 170.066 63.5195C170.258 63.1914 170.486 62.8945 170.752 62.6289C171.021 62.3633 171.32 62.1367 171.648 61.9492C171.977 61.7617 172.33 61.6172 172.709 61.5156C173.092 61.4141 173.49 61.3633 173.904 61.3633C174.303 61.3633 174.691 61.4102 175.07 61.5039C175.453 61.5977 175.809 61.7402 176.137 61.9316C176.465 62.1191 176.756 62.3574 177.01 62.6465C177.268 62.9316 177.471 63.2676 177.619 63.6543Z" fill="black" fill-opacity="0.98"/>
<path d="M196.725 46.709C196.725 46.9473 196.686 47.1699 196.607 47.377C196.529 47.584 196.422 47.7734 196.285 47.9453C196.148 48.1133 195.988 48.2637 195.805 48.3965C195.625 48.5293 195.43 48.6406 195.219 48.7305C195.012 48.8203 194.797 48.8887 194.574 48.9355C194.352 48.9785 194.133 49 193.918 49H188.955V40.5625H193.49C193.689 40.5625 193.898 40.5781 194.117 40.6094C194.336 40.6367 194.549 40.6816 194.756 40.7441C194.967 40.8066 195.166 40.8887 195.354 40.9902C195.545 41.0918 195.711 41.2168 195.852 41.3652C195.996 41.5098 196.109 41.6777 196.191 41.8691C196.277 42.0605 196.32 42.2793 196.32 42.5254C196.32 42.7598 196.273 42.9727 196.18 43.1641C196.086 43.3555 195.959 43.5273 195.799 43.6797C195.643 43.8281 195.461 43.9609 195.254 44.0781C195.051 44.1914 194.836 44.291 194.609 44.377C194.895 44.4551 195.164 44.5586 195.418 44.6875C195.676 44.8164 195.9 44.9746 196.092 45.1621C196.287 45.3496 196.441 45.5723 196.555 45.8301C196.668 46.084 196.725 46.377 196.725 46.709ZM193.959 42.7305C193.959 42.2539 193.832 41.9062 193.578 41.6875C193.328 41.4688 192.971 41.3594 192.506 41.3594H191.281V44.0957H192.307C192.518 44.0957 192.723 44.0703 192.922 44.0195C193.121 43.9648 193.297 43.8828 193.449 43.7734C193.605 43.6602 193.729 43.5176 193.818 43.3457C193.912 43.1738 193.959 42.9688 193.959 42.7305ZM194.369 46.5625C194.369 46.332 194.34 46.1172 194.281 45.918C194.223 45.7148 194.133 45.541 194.012 45.3965C193.891 45.248 193.738 45.1328 193.555 45.0508C193.375 44.9648 193.162 44.9219 192.916 44.9219H191.281V48.1797H192.711C192.949 48.1797 193.17 48.1406 193.373 48.0625C193.576 47.9844 193.752 47.875 193.9 47.7344C194.049 47.5938 194.164 47.4238 194.246 47.2246C194.328 47.0254 194.369 46.8047 194.369 46.5625Z" fill="black" fill-opacity="0.98"/>
<path d="M198.135 65.7695C198.135 66.1797 198.08 66.5703 197.971 66.9414C197.861 67.3086 197.707 67.6484 197.508 67.9609C197.312 68.2734 197.078 68.5566 196.805 68.8105C196.531 69.0605 196.229 69.2734 195.896 69.4492C195.568 69.625 195.215 69.7617 194.836 69.8594C194.461 69.9531 194.074 70 193.676 70H189.955V61.5625H193.676C194.074 61.5625 194.461 61.6094 194.836 61.7031C195.211 61.7969 195.562 61.9316 195.891 62.1074C196.223 62.2793 196.525 62.4902 196.799 62.7402C197.076 62.9902 197.312 63.2715 197.508 63.584C197.707 63.8926 197.861 64.2324 197.971 64.6035C198.08 64.9707 198.135 65.3594 198.135 65.7695ZM195.773 65.7695C195.773 65.3125 195.717 64.8789 195.604 64.4688C195.494 64.0547 195.322 63.6914 195.088 63.3789C194.854 63.0664 194.555 62.8184 194.191 62.6348C193.832 62.4512 193.4 62.3594 192.896 62.3594H192.281V69.1797H192.896C193.393 69.1797 193.82 69.0879 194.18 68.9043C194.543 68.7168 194.842 68.4668 195.076 68.1543C195.314 67.8379 195.49 67.4746 195.604 67.0645C195.717 66.6543 195.773 66.2227 195.773 65.7695Z" fill="black" fill-opacity="0.98"/>
<rect x="152" y="27" width="63" height="59" rx="10" fill="#0079DF" fill-opacity="0.29"/>
<rect x="152.5" y="27.5" width="62" height="58" rx="9.5" stroke="#0079DF" stroke-opacity="0.29"/>
<defs>
<filter id="filter0_d_104_58" x="30" y="28.3157" width="203" height="138.684" filterUnits="userSpaceOnUse" color-interpolation-filters="sRGB">
<feFlood flood-opacity="0" result="BackgroundImageFix"/>
<feColorMatrix in="SourceAlpha" type="matrix" values="0 0 0 0 0 0 0 0 0 0 0 0 0 0 0 0 0 0 127 0" result="hardAlpha"/>
<feOffset dy="4"/>
<feGaussianBlur stdDeviation="2"/>
<feComposite in2="hardAlpha" operator="out"/>
<feColorMatrix type="matrix" values="0 0 0 0 0 0 0 0 0 0 0 0 0 0 0 0 0 0 0.25 0"/>
<feBlend mode="normal" in2="BackgroundImageFix" result="effect1_dropShadow_104_58"/>
<feBlend mode="normal" in="SourceGraphic" in2="effect1_dropShadow_104_58" result="shape"/>
</filter>
<linearGradient id="paint0_linear_104_58" x1="167" y1="51" x2="184" y2="77" gradientUnits="userSpaceOnUse">
<stop offset="0.14144" stop-color="#00D7FF"/>
<stop offset="1" stop-color="#5800FF"/>
<stop offset="1" stop-opacity="0.47"/>
</linearGradient>
<linearGradient id="paint1_linear_104_58" x1="163" y1="50.5" x2="184" y2="77" gradientUnits="userSpaceOnUse">
<stop stop-color="#00D7FF"/>
<stop offset="0.462657" stop-color="#5800FF"/>
<stop offset="0.96875"/>
</linearGradient>
<linearGradient id="paint2_linear_104_58" x1="180" y1="38.5" x2="181" y2="75.5" gradientUnits="userSpaceOnUse">
<stop stop-color="#00D7FF"/>
<stop offset="0.442663" stop-color="#5800FF"/>
<stop offset="0.785345" stop-opacity="0.9"/>
</linearGradient>
<linearGradient id="paint3_linear_104_58" x1="164" y1="58" x2="204" y2="58" gradientUnits="userSpaceOnUse">
<stop offset="0.0608444" stop-color="#72FFFF"/>
<stop offset="0.64459" stop-color="#5800FF"/>
<stop offset="0.8125" stop-color="#72FFFF"/>
<stop offset="0.932888"/>
</linearGradient>
<linearGradient id="paint4_linear_104_58" x1="172.5" y1="39.5" x2="186" y2="44.5" gradientUnits="userSpaceOnUse">
<stop offset="0.552724"/>
<stop offset="0.598958" stop-color="#5800FF"/>
</linearGradient>
</defs>
</svg>
